PathFileType	4	TRC_standard.trc
DataRate	CameraRate	NumFrames	NumMarkers	Units	OrigDataRate	OrigDataStartFrame	OrigNumFrames
100.0	100.0	10	37	mm	100.0	280	2234	
Frame#	Time	T10			C7			CLAV			RACR1			LACR1			RPSI			LPSI			RASI			LASI			LTH2			LTH3			LTH1			RTH2			RTH3			RTH1			RLFC			RMFC			RTB1			RTB3			RTB2			LLFC			LMFC			LTB1			LTB3			LTB2			LLMAL			LCAL			LMMAL			RLMAL			RMMAL			RCAL			RMT5			RMT1			RToe			LMT5			LMT1			LToe			
		X1	Y1	Z1	X2	Y2	Z2	X3	Y3	Z3	X4	Y4	Z4	X5	Y5	Z5	X6	Y6	Z6	X7	Y7	Z7	X8	Y8	Z8	X9	Y9	Z9	X10	Y10	Z10	X11	Y11	Z11	X12	Y12	Z12	X13	Y13	Z13	X14	Y14	Z14	X15	Y15	Z15	X16	Y16	Z16	X17	Y17	Z17	X18	Y18	Z18	X19	Y19	Z19	X20	Y20	Z20	X21	Y21	Z21	X22	Y22	Z22	X23	Y23	Z23	X24	Y24	Z24	X25	Y25	Z25	X26	Y26	Z26	X27	Y27	Z27	X28	Y28	Z28	X29	Y29	Z29	X30	Y30	Z30	X31	Y31	Z31	X32	Y32	Z32	X33	Y33	Z33	X34	Y34	Z34	X35	Y35	Z35	X36	Y36	Z36	X37	Y37	Z37	
280	2.79	754.14148	1211.4597	-789.57568	743.08069	1469.8804	-670.41052	751.08978	1311.9476	-570.02655	584.82983	1414.2697	-650.61877	921.51685	1416.4425	-649.41888	687.93488	990.37103	-854.12561	774.72321	1003.5763	-856.23303	624.36798	959.9754	-618.73309	879.83783	965.979	-623.33795	939.74689	757.86157	-726.95819	903.51776	687.29144	-720.0481	904.74243	826.07275	-652.90747	611.85156	729.4043	-539.02332	566.7334	775.72565	-595.41541	641.51178	832.60938	-577.04297	599.80463	511.62982	-519.04047				639.97388	417.61475	-447.03101	617.17841	336.60458	-454.49188	640.20563	286.89572	-435.30472	881.12457	491.81628	-839.08258				825.18848	373.64429	-844.56	854.93988	316.80911	-889.125	811.17828	267.3027	-901.54498	831.15076	105.0199	-1028.7542				788.68707	77.381371	-1096.1096	627.42358	84.20607	-442.9252				672.19836	28.350695	-491.62622	627.61664	73.834366	-328.75345	700.81757	88.877403	-308.19043				851.29163	40.549328	-922.95117	779.79364	51.253117	-892.27765			
281	2.8	753.00165	1210.968	-787.56732	741.94324	1469.5475	-668.65753	750.12872	1311.6552	-568.12317	583.71283	1413.7599	-648.7121	920.42004	1416.1576	-647.76788	686.36877	989.99902	-851.57635	773.17059	1003.0898	-853.87793	623.58514	959.64685	-616.02966	879.05847	965.40387	-621.40021	938.7821	757.32452	-726.06567	902.81659	686.75049	-720.05725	903.8241	825.31952	-651.56757	612.19214	729.0321	-536.26324	566.57788	775.26691	-592.32458	641.35004	832.34277	-574.14508	600.245	511.08475	-516.56281				641.04352	416.97382	-445.14648	618.01361	335.96564	-452.49304	641.19275	286.32397	-433.71509	880.39734	491.84021	-839.85138				824.92737	373.51273	-846.96594	854.68652	317.65387	-892.34814	811.1665	268.16312	-905.58618	831.41821	107.98521	-1035.6581				788.89105	81.913017	-1103.4763	628.00378	83.918167	-442.35239				672.30933	28.618721	-491.8996	629.08978	72.480911	-328.54028	702.52527	87.188431	-308.33389				851.27667	40.502632	-931.43805	779.87036	51.085598	-900.79352			
282	2.81	751.81329	1210.568	-785.4541	740.78424	1469.3145	-666.81573	749.13153	1311.4812	-566.11865	582.57007	1413.3754	-646.68829	919.30048	1415.968	-646.03925	684.76794	989.73792	-848.90295	771.59235	1002.6767	-851.38971	622.737	959.44843	-613.21747	878.20282	964.91919	-619.33405	937.74658	756.82129	-724.87439	902.08447	686.23096	-719.75165	902.82184	824.66254	-650.02057	612.52032	728.76697	-533.3645	566.39435	774.93359	-589.09033	641.14557	832.19489	-571.11652	600.6814	510.58804	-514.11005				642.14709	416.21829	-443.62585	618.87976	335.26349	-451.099	642.21857	285.64822	-432.91876	879.66235	491.84601	-840.1283				824.71216	373.37463	-848.92096	854.46185	318.55838	-895.15051	811.20428	269.08774	-909.17645	831.72833	111.162	-1042.2759				789.08789	86.78627	-1110.51	628.57611	83.643532	-443.29657				672.37549	29.082577	-493.89691	630.52826	70.777	-329.9325	704.23999	85.030907	-310.02155				851.24969	40.47665	-939.94287	779.94391	50.891747	-909.33643			
283	2.82	750.58087	1210.2637	-783.24359	739.60846	1469.1836	-664.8905	748.10175	1311.4286	-564.01953	581.40692	1413.1208	-644.55322	918.16272	1415.8767	-644.23584	683.13525	989.59363	-846.1153	769.99103	1002.342	-848.77936	621.82544	959.3847	-610.30566	877.27283	964.52856	-617.14929	936.6377	756.35809	-723.38135	901.32214	685.73767	-719.11066	901.73901	824.10706	-648.27167	612.82983	728.60254	-530.34973	566.17883	774.72443	-585.73157	640.89331	832.16272	-567.97198	601.11395	510.1387	-511.70599				643.2771	415.35867	-442.461	619.76862	334.50009	-450.27884	643.27417	284.87198	-432.86142	878.93292	491.82944	-839.89728				824.55725	373.22717	-850.39996	854.27679	319.51846	-897.50964	811.3031	270.07266	-912.28308	832.08105	114.55053	-1048.5619				789.26764	92.008118	-1117.1432	629.1272	83.368233	-445.61285				672.38422	29.699001	-497.44037	631.90302	68.77832	-332.76385	705.93243	82.47274	-313.08221				851.20331	40.476894	-948.46454	780.00751	50.669872	-917.90778			
284	2.83	749.30872	1210.0586	-780.94427	738.42114	1469.1569	-662.88812	747.0434	1311.4988	-561.83307	580.22888	1413	-642.31409	917.01105	1415.8859	-642.36169	681.47339	989.5705	-843.22491	768.36926	1002.0898	-846.05994	620.85345	959.45868	-607.30469	876.27124	964.2348	-614.85797	935.45404	755.94165	-721.58728	900.5304	685.27698	-718.112	900.58008	823.65808	-646.32898	613.11377	728.52765	-527.24591	565.92767	774.63452	-582.27106	640.58789	832.24011	-564.72931	601.54169	509.73273	-509.37952				644.42554	414.40607	-441.64459	620.67181	333.67838	-450.00006	644.34991	284.00122	-433.48563	878.22314	491.78696	-839.14429				824.47723	373.06824	-851.37878	854.14221	320.52969	-899.40308	811.47443	271.1138	-914.87634	832.47571	118.14921	-1054.4672				789.42151	97.582222	-1123.3032	629.646	83.083946	-449.14471				672.32642	30.428661	-502.3374	633.18866	66.550247	-336.85724	707.57648	79.593506	-317.3356				851.13037	40.510735	-956.99707	780.05438	50.420708	-926.50385			
285	2.84	748.0011	1209.9548	-778.56604	737.22711	1469.2351	-660.81567	745.961	1311.6924	-559.56805	579.04156	1413.0143	-639.97839	915.85016	1415.9965	-640.42255	679.78479	989.67151	-840.24493	766.729	1001.9237	-843.24591	619.8244	959.67133	-604.2262	875.20142	964.04004	-612.47327	934.19635	755.57849	-719.49719	899.71075	684.85663	-716.73364	899.35107	823.32056	-644.20239	613.36499	728.52844	-524.0838	565.63715	774.65582	-578.73474	640.22455	832.41711	-561.4082	601.96271	509.36389	-507.16251				645.58264	413.3718	-441.17044	621.58008	332.80225	-450.2294	645.4361	283.04446	-434.73242	877.54761	491.71597	-837.85693				824.48639	372.89651	-851.83411	854.06836	321.58752	-900.80823	811.72931	272.2063	-916.93085	832.91089	121.95439	-1059.9408				789.54132	103.5079	-1128.9153	630.12439	82.787239	-453.73029				672.19751	31.236393	-508.38782	634.36499	64.164131	-342.03088	709.14905	76.480408	-322.59885				851.02344	40.587822	-965.52924	780.078	50.148117	-935.11456			
286	2.85	746.66235	1209.954	-776.11957	736.03162	1469.4178	-658.68103	744.85999	1312.0079	-557.23389	577.85077	1413.1648	-637.55463	914.68463	1416.208	-638.42523	678.07208	989.89807	-837.18982	765.07227	1001.8456	-840.35364	618.74249	960.02161	-601.08295	874.0675	963.94556	-610.00977	932.86798	755.27527	-717.12054	898.86578	684.48499	-714.95636	898.05896	823.09882	-641.90405	613.57654	728.58795	-520.89685	565.30383	774.7771	-575.15179	639.79901	832.6817	-558.03076	602.37366	509.02414	-505.08981				646.73804	412.2674	-441.03354	622.4837	331.87656	-450.93408	646.52277	282.0119	-436.54327	876.9212	491.61481	-836.02545				824.59747	372.71173	-851.74377	854.06433	322.68726	-901.70227	812.07721	273.34488	-918.42615	833.38397	125.96014	-1064.9299				789.62073	109.77935	-1133.9041	630.55713	82.478783	-459.20755				671.99713	32.091251	-515.39099	635.41663	61.693611	-348.10455	710.63153	73.224091	-328.69244				850.87622	40.720581	-974.04163	780.07245	49.859703	-943.72101			
287	2.86	745.29694	1210.0563	-773.6167	734.83942	1469.7036	-656.49298	743.74585	1312.443	-554.84131	576.66217	1413.4501	-635.052	913.51953	1416.5199	-636.37823	676.33795	990.24969	-834.0752	763.401	1001.8568	-837.40051	617.61218	960.50647	-597.88892	872.87427	963.95178	-607.4837	931.4754	755.03766	-714.47113	897.99933	684.17029	-712.76593	896.71179	822.99683	-639.44824	613.74133	728.68756	-517.72101	564.92487	774.98553	-571.55328	639.30756	833.01929	-554.62061	602.77063	508.70419	-503.1976				647.88049	411.10416	-441.22968	623.37311	330.90683	-452.08243	647.59967	280.91516	-438.86145	876.35828	491.483	-833.64178				824.82227	372.5144	-851.08685	854.13837	323.82419	-902.06293	812.52631	274.52374	-919.34711	833.89154	130.15794	-1069.381				789.65515	116.38461	-1138.1963	630.94171	82.162354	-465.4198				671.72876	32.966473	-523.15247	636.33405	59.210995	-354.90552	712.0094	69.914528	-335.44626				850.68384	40.924603	-982.5047	780.03333	49.567196	-952.29327			
288	2.87	743.90881	1210.261	-771.06976	733.65552	1470.0902	-654.26086	742.62476	1312.9937	-552.40192	575.48181	1413.868	-632.48029	912.35931	1416.9292	-634.29132	674.58514	990.72424	-830.91821	761.71704	1001.9574	-834.40527	616.4389	961.12115	-594.659	871.6272	964.05835	-604.91168	930.02777	754.87122	-711.56726	897.11725	683.9209	-710.15546	895.31873	823.01813	-636.85065	613.85297	728.80811	-514.59296	564.49774	775.26636	-567.97192	638.74768	833.41364	-551.20264	603.14832	508.39407	-501.52231				648.99811	409.89325	-441.75555	624.23804	329.89932	-453.64444	648.6568	279.76685	-441.63339	875.87292	491.3212	-830.70032				825.17041	372.30627	-849.84424	854.29663	324.99362	-901.86853	813.08221	275.73679	-919.68445	834.42834	134.53648	-1073.2408				789.64148	123.30467	-1141.7231	631.27838	81.843826	-472.21964				671.40009	33.839325	-531.48981	637.11292	56.783943	-362.2728	713.2724	66.637215	-342.70398				850.44379	41.218784	-990.87732	779.9588	49.286613	-960.78784			
289	2.88	742.50214	1210.5663	-768.492	732.48425	1470.5736	-651.99451	741.50281	1313.6541	-549.92798	574.31519	1414.4148	-629.84973	911.20874	1417.4329	-632.17548	672.81641	991.31805	-827.73645	760.02216	1002.1461	-831.38739	615.22821	961.85889	-591.40881	870.3324	964.2641	-602.31165	928.53754	754.78015	-708.43127	896.22748	683.74396	-707.12695	893.88971	823.16534	-634.12891	613.9054	728.93018	-511.54965	564.02081	775.60364	-564.44122	638.1178	833.84802	-547.80273	603.50098	508.08371	-500.09967				650.07812	408.64539	-442.60864	625.06842	328.86041	-455.59253	649.68347	278.57983	-444.80972	875.47809	491.13147	-827.19806				825.64929	372.09021	-847.99878	854.54358	326.19073	-901.09833	813.74792	276.97754	-919.43488	834.9881	139.08125	-1076.4578				789.57867	130.51257	-1144.424	631.5697	81.530258	-479.47296				671.0213	34.690964	-540.23688	637.75385	54.472706	-370.06158	714.414	63.469849	-350.32672				850.15607	41.625313	-999.10364	779.84967	49.03804	-969.14612			
